# AST/ASF file generated using VICON BodyLanguage
# -----------------------------------------------
:version 1.10
:name VICON
:units
  mass 1.0
  length 0.45
  angle deg
:documentation
   .ast/.asf automatically generated from VICON data using
   VICON BodyBuilder and BodyLanguage model FoxedUp or BRILLIANT.MOD
:root
   order TX TY TZ RX RY RZ
   axis XYZ
   position 0 0 0  
   orientation 0 0 0 
:bonedata
  begin
     id 1 
     name lhipjoint
     direction 0.603808 -0.713975 0.35448 
     length 2.2025 
     axis 0 0 0  XYZ
  end
  begin
     id 2 
     name lfemur
     direction 0.34202 -0.939693 0  
     length 6.55877  
     axis 0 0 20  XYZ
    dof rx ry rz
    limits (-160.0 20.0)
           (-70.0 70.0)
           (-60.0 70.0)
  end
  begin
     id 3 
     name ltibia
     direction 0.34202 -0.939693 0   
     length 6.80302   
     axis 0 0 20   XYZ
    dof rx
    limits (-10.0 170.0)
  end
  begin
     id 4 
     name lfoot
     direction 0.091848 -0.25235 0.963267   
     length 2.03446   
     axis -90 7.62852e-016 20   XYZ
    dof rx rz
    limits (-45.0 90.0)
           (-70.0 20.0)
  end
  begin
     id 5 
     name ltoes
     direction 1.53608e-011 -4.21925e-011 1   
     length 1.02033   
     axis -90 7.62852e-016 20   XYZ
    dof rx
    limits (-90.0 20.0)
  end
  begin
     id 6 
     name rhipjoint
     direction -0.587285 -0.724947 0.359928   
     length 2.16916  
     axis 0 0 0  XYZ 
  end
  begin
     id 7 
     name rfemur
     direction -0.34202 -0.939693 0   
     length 6.43173   
     axis 0 0 -20   XYZ
    dof rx ry rz
    limits (-160.0 20.0)
           (-70.0 70.0)
           (-70.0 60.0)
  end
  begin
     id 8 
     name rtibia
     direction -0.34202 -0.939693 0   
     length 6.70662   
     axis 0 0 -20   XYZ
    dof rx
    limits (-10.0 170.0)
 end
 begin
     id 9 
     name rfoot
     direction -0.11854 -0.325686 0.938018   
     length 2.0773  
     axis -90 -7.62852e-016 -20   XYZ
    dof rx rz
    limits (-45.0 90.0)
           (-20.0 70.0)
  end
  begin
     id 10 
     name rtoes
     direction -1.53547e-011 -4.21838e-011 1   
     length 1.03267   
     axis -90 -7.62852e-016 -20   XYZ
    dof rx
    limits (-90.0 20.0)
  end
  begin
     id 11 
     name lowerback
     direction -0.0286554 0.999539 0.0100613   
     length 2.08751   
     axis 0 0 0   XYZ
    dof rx ry rz
    limits (-20.0 45.0)
           (-30.0 30.0)
           (-30.0 30.0)
  end
  begin
     id 12 
     name upperback
     direction 0.0227093 0.999705 -0.00860929   
     length 2.08517   
     axis 0 0 0   XYZ
    dof rx ry rz
    limits (-20.0 45.0)
           (-30.0 30.0)
           (-30.0 30.0)
  end
  begin
     id 13 
     name thorax
     direction 0.0351627 0.999285 -0.013892   
     length 2.08412   
     axis 0 0 0   XYZ
    dof rx ry rz
    limits (-20.0 45.0)
           (-30.0 30.0)
           (-30.0 30.0)
  end
  begin
     id 14 
     name lowerneck
     direction -0.0696283 0.997344 0.0213922   
     length 1.44164   
     axis 0 0 0   XYZ
    dof rx ry rz
    limits (-20.0 45.0)
           (-30.0 30.0)
           (-30.0 30.0)
  end
  begin
     id 15 
     name upperneck
     direction 0.0531 0.990412 -0.127531   
     length 1.45022   
     axis 0 0 0   XYZ
    dof rx ry rz
    limits (-20.0 45.0)
           (-30.0 30.0)
           (-30.0 30.0)
  end
  begin
     id 16
     name head
     direction 0.0188154 0.998548 -0.0504727  
     length 1.45845  
     axis 0 0 0   XYZ
    dof rx ry rz
    limits (-20.0 45.0)
           (-30.0 30.0)
           (-30.0 30.0)
  end
  begin
     id 17 
     name lclavicle
     direction 0.961559 0.260051 0.088188  
     length 2.86057  
     axis 0 0 0   XYZ
    dof ry rz
    limits (-20.0 10.0)
           (0.0 20.0)
  end
  begin
     id 18 
     name lhumerus
     direction 1 -4.48959e-011 2.88185e-027   
     length 4.36901   
     axis 180 -30 -90   XYZ
    dof rx ry rz
    limits (-60.0 90.0)
           (-90.0 90.0)
           (-90.0 90.0)
  end
  begin
     id 19
     name lradius
     direction 1 -4.48965e-011 -3.92618e-028   
     length 3.21737   
     axis 180 -30 -90   XYZ
    dof rx
    limits (-10.0 170.0)
  end
  begin
     id 20
     name lwrist
     direction 1 -4.49037e-011 2.57246e-027   
     length 1.60869   
     axis -1.61769e-015 90 90   XYZ
    dof ry
    limits (-180.0 0.0)
 end
  begin
     id 21 
     name lhand
     direction 1 -4.48807e-011 5.12958e-027   
     length 0.564313   
     axis -3.27988e-015 90 90   XYZ
    dof rx rz
    limits (-90.0 90.0)
           (-45.0 45.0)
  end
  begin
     id 22 
     name lfingers
     direction 1 -4.48879e-011 1.02687e-026   
     length 0.454963   
     axis -6.5598e-015 90 90   XYZ
    dof rx
    limits (0.0 90.0)
  end
  begin
     id 23
     name lthumb
     direction 0.707107 -6.3475e-011 0.707107   
     length 0.653239   
     axis -90 45 2.19363e-014   XYZ
    dof rx rz
    limits (-45.0 45.0)
           (-45.0 45.0)
  end
  begin
     id 24 
     name rclavicle
     direction -0.954677 0.253915 0.155304   
     length 3.11497  
     axis 0 0 0   XYZ 
    dof ry rz
    limits (-10.0 20.0)
           (-20.0 0.0)
  end
  begin
     id 25 
     name rhumerus
     direction -1 -4.48958e-011 -8.20169e-028  
     length 4.34118   
     axis 180 30 90   XYZ
    dof rx ry rz
    limits (-90.0 60.0)
           (-90.0 90.0)
           (-90.0 90.0)
  end
  begin
     id 26 
     name rradius
     direction -1 -4.48978e-011 1.5676e-027   
     length 3.09531   
     axis 180 30 90   XYZ
    dof rx
    limits (-10.0 170.0)
  end
  begin
     id 27 
     name rwrist
     direction -1 -4.49001e-011 2.57123e-027   
     length 1.54765   
     axis -1.61769e-015 -90 -90   XYZ
    dof ry
    limits (-180.0 0.0)
  end
  begin
     id 28
     name rhand
     direction -1 -4.48847e-011 5.13225e-027   
     length 0.597446   
     axis -3.27988e-015 -90 -90   XYZ
    dof rx rz
    limits (-90.0 90.0)
           (-45.0 45.0)
  end
  begin
     id 29
     name rfingers
     direction -1 -4.49094e-011 1.02974e-026   
     length 0.481677   
     axis -6.5598e-015 -90 -90   XYZ
    dof rx
    limits (0.0 90.0)
  end
  begin
     id 30
     name rthumb
     direction -0.707107 -6.34859e-011 0.707107   
     length 0.691594   
     axis -90 -45 -2.19363e-014   XYZ
    dof rx rz
    limits (-45.0 45.0)
           (-45.0 45.0)
  end
:hierarchy
  begin
    root lhipjoint rhipjoint lowerback
    lhipjoint lfemur
    lfemur ltibia
    ltibia lfoot
    lfoot ltoes
    rhipjoint rfemur
    rfemur rtibia
    rtibia rfoot
    rfoot rtoes
    lowerback upperback
    upperback thorax
    thorax lowerneck lclavicle rclavicle
    lowerneck upperneck
    upperneck head
    lclavicle lhumerus
    lhumerus lradius
    lradius lwrist
    lwrist lhand lthumb
    lhand lfingers
    rclavicle rhumerus
    rhumerus rradius
    rradius rwrist
    rwrist rhand rthumb
    rhand rfingers
  end

#!OML:ASF I:\Acrobat_Osman\acrobat\cartwheel_test 2\Patient 1\Session 1\acrobat.ASF
:FULLY-SPECIFIED
:DEGREES
105
root 11.8684 16.2444 1.73368 -133.23 234.543 138.189
lowerback 8.99813 -1.34918 -11.9082
upperback 0.25361 -3.1604 -2.0822
thorax -4.28516 -1.35601 4.86475
lowerneck -14.6311 -1.48217 -7.63058
upperneck 12.0336 -1.91587 9.813
head 6.21865 -0.511644 4.22648
rclavicle -1.11319e-014 -4.13472e-014
rhumerus -23.7413 -29.8596 5.16858
rradius 42.4123
rwrist -18.0118
rhand -43.4448 36.3341
rfingers 7.12502
rthumb -16.2867 6.99812
lclavicle -1.11319e-014 -4.13472e-014
lhumerus -2.32932 24.8192 6.27883
lradius 46.2811
lwrist 32.3099
lhand -28.1273 58.0203
lfingers 7.12502
lthumb -1.50884 87.9947
rfemur -2.08487 -4.29583 32.1353
rtibia 26.8215
rfoot 14.9096 -20.599
rtoes 4.58242
lfemur -45.5662 31.907 -2.67142
ltibia 61.4326
lfoot -3.78858 10.1605
ltoes -8.57887
106
root 11.9039 16.2904 1.50482 -135.496 236.33 140.522
lowerback 8.48657 -1.29852 -11.1656
upperback -0.0740977 -2.97769 -2.17436
thorax -4.41672 -1.26389 4.32385
lowerneck -14.3506 -1.42623 -7.36167
upperneck 12.6343 -1.77169 8.69047
head 6.3336 -0.520189 3.83537
rclavicle -2.70347e-014 6.36111e-015
rhumerus -22.4651 -29.8558 6.652
rradius 44.048
rwrist -18.5327
rhand -42.9221 37.7652
rfingers 7.12502
rthumb -15.7833 8.3887
lclavicle -2.70347e-014 6.36111e-015
lhumerus -1.95017 24.5193 5.94717
lradius 48.5023
lwrist 31.794
lhand -27.6816 55.4301
lfingers 7.12502
lthumb -1.07839 85.4071
rfemur -1.6405 -3.46024 31.506
rtibia 26.1373
rfoot 12.8971 -24.499
rtoes 6.80065
lfemur -43.8104 29.8094 -2.47782
ltibia 58.457
lfoot -4.49179 10.2094
ltoes -7.35997
107
root 11.942 16.3119 1.28408 -137.738 238.218 142.779
lowerback 7.98612 -1.17531 -10.4433
upperback -0.271195 -2.69394 -2.20192
thorax -4.41819 -1.13449 3.85093
lowerneck -14.4707 -1.39082 -7.1351
upperneck 13.1265 -1.60625 7.57045
head 6.4854 -0.515105 3.45471
rclavicle 3.18055e-015 5.725e-014
rhumerus -21.0328 -30.3148 8.13941
rradius 45.7519
rwrist -19.3959
rhand -43.2237 39.2865
rfingers 7.12502
rthumb -16.0738 9.93313
lclavicle 3.18055e-015 5.725e-014
lhumerus -1.77714 24.3089 5.35382
lradius 50.689
lwrist 31.8693
lhand -27.2148 54.2625
lfingers 7.12502
lthumb -0.627533 84.2414
rfemur -0.889453 -2.8901 30.6309
rtibia 25.2746
rfoot 10.2983 -26.5605
rtoes 3.17875
lfemur -42.0164 28.0689 -2.31762
ltibia 55.1885
lfoot -4.88 12.516
ltoes -3.95615
108
root 11.9784 16.3147 1.07036 -140.051 240.024 145.049
lowerback 7.62904 -1.07933 -9.75203
upperback -0.433683 -2.461 -2.0857
thorax -4.44114 -1.02735 3.55707
lowerneck -14.8737 -1.32687 -6.98189
upperneck 13.5597 -1.36236 6.4832
head 6.66591 -0.472835 3.10475
rclavicle -9.06458e-014 -6.04305e-014
rhumerus -19.3368 -30.9659 9.38772
rradius 47.583
rwrist -20.6801
rhand -43.4107 40.0031
rfingers 7.12502
rthumb -16.2539 10.6644
lclavicle -9.06458e-014 -6.04305e-014
lhumerus -1.87916 24.3321 4.57603
lradius 52.7705
lwrist 31.7827
lhand -27.3716 53.926
lfingers 7.12502
lthumb -0.77903 83.9043
rfemur 0.134532 -1.98585 29.7507
rtibia 24.2174
rfoot 6.94166 -27.6667
rtoes -0.605588
lfemur -40.3245 26.5331 -2.08945
ltibia 52.0411
lfoot -4.32304 15.9657
ltoes -0.362035
109
root 12.0139 16.2964 0.85631 -141.981 241.663 147.036
lowerback 7.26578 -1.08032 -9.02017
upperback -0.653866 -2.35327 -1.86319
thorax -4.49775 -0.978182 3.36519
lowerneck -15.3327 -1.09672 -6.49238
upperneck 13.7755 -0.939772 5.33172
head 6.77695 -0.336099 2.69401
rclavicle 3.61788e-014 5.725e-014
rhumerus -17.4207 -31.6081 10.0651
rradius 49.5777
rwrist -21.9784
rhand -43.7667 40.415
rfingers 7.12502
rthumb -16.5966 11.1047
lclavicle 3.61788e-014 5.725e-014
lhumerus -2.36744 24.5849 3.39667
lradius 54.7924
lwrist 31.4519
lhand -27.5528 53.6339
lfingers 7.12502
lthumb -0.954031 83.6115
rfemur 1.05229 -0.601166 29.0974
rtibia 23.1679
rfoot 3.17324 -28.552
rtoes -2.42413
lfemur -38.8021 24.827 -1.43611
ltibia 49.1203
lfoot -3.01726 18.9241
ltoes 3.51343
110
root 12.0497 16.262 0.64213 -143.666 243.406 148.763
lowerback 6.89639 -0.976281 -8.43743
upperback -0.794453 -2.11975 -1.66262
thorax -4.47525 -0.870583 3.21897
lowerneck -15.3642 -0.842503 -5.8374
upperneck 13.2976 -0.562831 4.36689
head 6.60132 -0.198929 2.3051
rclavicle 4.77083e-014 -2.54444e-014
rhumerus -15.8273 -32.3751 10.4093
rradius 51.7469
rwrist -22.6484
rhand -44.0722 40.9612
rfingers 7.12502
rthumb -16.8907 11.6758
lclavicle 4.77083e-014 -2.54444e-014
lhumerus -2.74004 25.2392 2.22381
lradius 56.8307
lwrist 31.118
lhand -27.981 53.4454
lfingers 7.12502
lthumb -1.36757 83.4208
rfemur 1.88609 0.687532 28.3784
rtibia 22.2452
rfoot 0.109447 -28.8832
rtoes -5.22795
lfemur -36.9846 22.4273 -0.248389
ltibia 46.4641
lfoot -1.43659 20.5848
ltoes 4.93379
111
root 12.088 16.226 0.432118 -145.468 245.105 150.637
lowerback 6.58266 -0.86602 -8.05071
upperback -0.868045 -1.89705 -1.40769
thorax -4.40217 -0.766458 3.24085
lowerneck -14.7047 -0.602127 -5.49325
upperneck 11.939 -0.225569 3.77978
head 6.03748 -0.0619132 2.07738
rclavicle -4.17448e-014 -1.27222e-014
rhumerus -14.4345 -33.2114 10.4692
rradius 54.0446
rwrist -22.4843
rhand -44.3253 41.7977
rfingers 7.12502
rthumb -17.1343 12.5332
lclavicle -4.17448e-014 -1.27222e-014
lhumerus -3.19423 26.249 1.18781
lradius 58.9546
lwrist 30.9596
lhand -28.8041 53.2824
lfingers 7.12502
lthumb -2.16248 83.2512
rfemur 2.52449 1.71511 27.5556
rtibia 21.6016
rfoot -2.48212 -28.5642
rtoes -8.84484
lfemur -35.055 18.9071 1.26248
ltibia 44.0985
lfoot 0.46668 21.338
ltoes 2.83243
112
root 12.1266 16.1912 0.233327 -147.293 246.539 152.626
lowerback 6.25917 -0.896868 -7.61281
upperback -0.911063 -1.85427 -1.08433
thorax -4.26924 -0.75406 3.32208
lowerneck -13.9811 -0.250242 -5.31331
upperneck 10.3249 0.253462 3.4118
head 5.38538 0.159597 1.9574
rclavicle 1.82882e-014 2.54444e-014
rhumerus -13.1981 -33.911 10.0621
rradius 56.6891
rwrist -21.9196
rhand -44.698 42.813
rfingers 7.12502
rthumb -17.493 13.5801
lclavicle 1.82882e-014 2.54444e-014
lhumerus -3.96725 27.6314 0.241937
lradius 61.268
lwrist 30.8697
lhand -29.6671 53.2817
lfingers 7.12502
lthumb -2.99596 83.2404
rfemur 2.8075 2.49393 26.7646
rtibia 21.3358
rfoot -4.7802 -27.7857
rtoes -11.3751
lfemur -33.2709 14.1198 3.03804
ltibia 42.0668
lfoot 1.05573 22.8937
ltoes 4.63571
113
root 12.1641 16.1633 0.0454874 -148.85 247.782 154.395
lowerback 5.95716 -0.932105 -7.08143
upperback -0.971551 -1.81541 -0.719979
thorax -4.16754 -0.743459 3.39432
lowerneck -13.6261 0.131116 -5.01283
upperneck 9.10607 0.756199 3.00876
head 4.92618 0.39707 1.8115
rclavicle 3.39922e-014 2.70347e-014
rhumerus -12.6383 -34.1164 9.50191
rradius 59.917
rwrist -21.5361
rhand -45.1445 43.6349
rfingers 7.12502
rthumb -17.9227 14.4408
lclavicle 3.39922e-014 2.70347e-014
lhumerus -5.03245 28.9789 -0.472118
lradius 64.0919
lwrist 31.0176
lhand -30.7014 53.7825
lfingers 7.12502
lthumb -3.99475 83.7248
rfemur 2.72198 3.06969 26.1406
rtibia 21.3687
rfoot -6.15689 -26.9442
rtoes -14.2462
lfemur -31.681 9.02417 4.81756
ltibia 40.4473
lfoot -0.418047 25.5447
ltoes 11.8447
114
root 12.1992 16.1374 -0.136911 -149.9 248.891 155.767
lowerback 5.56788 -0.854459 -6.52028
upperback -1.0877 -1.62381 -0.333849
thorax -4.09127 -0.655552 3.45753
lowerneck -13.4063 0.367979 -4.55582
upperneck 8.23699 1.04226 2.51745
head 4.61363 0.526758 1.59823
rclavicle 1.35174e-014 1.43125e-014
rhumerus -12.9472 -33.8899 9.06209
rradius 63.3405
rwrist -21.4886
rhand -45.1914 44.3506
rfingers 7.12502
rthumb -17.9678 15.1605
lclavicle 1.35174e-014 1.43125e-014
lhumerus -6.05983 30.1494 -0.762876
lradius 67.4749
lwrist 31.3745
lhand -31.5481 54.2334
lfingers 7.12502
lthumb -4.81243 84.1587
rfemur 2.29122 3.66483 25.8257
rtibia 21.5639
rfoot -7.21165 -26.6415
rtoes -16.5891
lfemur -30.5384 5.03645 6.2548
ltibia 39.2716
lfoot -1.74868 28.1282
ltoes 16.634
115
root 12.2305 16.1108 -0.313916 -151 249.899 157.179
lowerback 5.21768 -0.76625 -6.07245
upperback -1.15297 -1.43555 -0.00174013
thorax -3.9818 -0.569902 3.52917
lowerneck -13.1966 0.439025 -4.36917
upperneck 7.44573 1.11605 2.34738
head 4.33411 0.563816 1.51359
rclavicle 7.7526e-015 -2.22639e-014
rhumerus -13.7178 -33.2653 8.55938
rradius 66.5869
rwrist -21.4753
rhand -44.9845 45.4785
rfingers 7.12502
rthumb -17.7688 16.2704
lclavicle 7.7526e-015 -2.22639e-014
lhumerus -7.13002 31.3244 -0.851444
lradius 71.3114
lwrist 31.5861
lhand -32.1188 54.5782
lfingers 7.12502
lthumb -5.36347 84.4903
rfemur 1.74775 4.21332 25.6302
rtibia 21.9048
rfoot -8.32566 -26.8484
rtoes -17.769
lfemur -29.6552 1.90827 7.21761
ltibia 38.4785
lfoot -3.33967 30.847
ltoes 20.5555
116
root 12.257 16.0984 -0.486074 -152.893 250.922 159.205
lowerback 5.14325 -0.709885 -5.91406
upperback -1.13431 -1.33212 0.26098
thorax -3.92786 -0.520622 3.70368
lowerneck -13.1258 0.434781 -4.51021
upperneck 6.80741 1.1281 2.39973
head 4.12428 0.573614 1.54838
rclavicle 7.21588e-014 2.54444e-014
rhumerus -14.5839 -32.4503 7.81066
rradius 69.5642
rwrist -20.6418
rhand -44.9862 46.7198
rfingers 7.12502
rthumb -17.7704 17.5118
lclavicle 7.21588e-014 2.54444e-014
lhumerus -8.63272 32.0684 -1.05799
lradius 75.4772
lwrist 31.4426
lhand -33.0221 55.1976
lfingers 7.12502
lthumb -6.23559 85.0858
rfemur 1.33169 4.67158 25.2597
rtibia 22.4076
rfoot -9.54889 -27.1384
rtoes -17.7458
lfemur -28.6276 -1.32955 7.65996
ltibia 37.9387
lfoot -7.91457 33.6
ltoes 27.8692
117
root 12.2813 16.0975 -0.655934 -155.797 251.879 162.23
lowerback 5.19631 -0.659437 -6.03546
upperback -1.12533 -1.26987 0.411431
thorax -3.94985 -0.484279 3.92505
lowerneck -13.0931 0.476978 -4.42652
upperneck 6.40872 1.19568 2.11564
head 3.99623 0.595258 1.44889
rclavicle -2.28602e-014 2.38542e-014
rhumerus -15.6468 -31.9099 6.82403
rradius 72.1962
rwrist -18.577
rhand -45.0658 47.6967
rfingers 7.12502
rthumb -17.847 18.4956
lclavicle -2.28602e-014 2.38542e-014
lhumerus -10.0629 32.3187 -1.17386
lradius 79.5381
lwrist 30.8668
lhand -33.784 55.528
lfingers 7.12502
lthumb -6.97109 85.3932
rfemur 0.890962 5.11234 24.6496
rtibia 23.0426
rfoot -10.8328 -27.4614
rtoes -17.0052
lfemur -27.6812 -5.0778 7.674
ltibia 37.524
lfoot -15.035 35.4074
ltoes 35.2316
